# xmcd
#
# Track frame offsets:
#	150
#	11995
#	23252
#	34216
#	44020
#	52885
#	60153
#	67838
#	79103
#
# Disc length: 1192 seconds
#
# Revision: 0
# Processed by: cddbd v1.5.2PL0 Copyright (c) Steve Scherf et al.
# Submitted via: dBpowerAMP V4.0
#
DISCID=6404a609
DTITLE=Xosé Lueiro - aire
DYEAR=1900
DGENRE=Ballad
TTITLE0=nao senlleira
TTITLE1=aire
TTITLE2=canción da boa estrela
TTITLE3=crepusculo
TTITLE4=pensando en ti
TTITLE5=albas de luar
TTITLE6=agardando por ti
TTITLE7=moi lentamente
TTITLE8=sen ti
EXTD=
EXTT0=
EXTT1=
EXTT2=
EXTT3=
EXTT4=
EXTT5=
EXTT6=
EXTT7=
EXTT8=
PLAYORDER=
